<svg width="164" height="164" viewBox="0 0 164 164" fill="none" xmlns="http://www.w3.org/2000/svg">
<path d="M164 141.173C164 153.816 153.816 164 141.173 164H22.8266C10.1842 164 0 153.816 0 141.173V22.8266C0 10.1842 10.1842 0 22.8266 0H141.173C153.816 0 164 10.1842 164 22.8266V141.173Z" fill="#F25621"/>
<path d="M135.731 26.1628H102.895C101.666 26.1628 100.613 27.2163 100.613 28.4454V57.7688H104.3C104.827 57.7688 105.178 58.2955 105.178 58.8223C105.178 58.9979 105.178 59.1735 105.002 59.3491L84.1074 80.5953C83.4051 81.4733 83.4051 82.5268 84.1074 83.4047L105.178 104.827C105.354 105.002 105.354 105.178 105.354 105.353C105.354 105.88 105.002 106.231 104.476 106.407H100.788V135.73C100.788 136.959 101.842 138.013 103.071 138.013H135.906C137.135 138.013 138.189 136.959 138.189 135.73V28.2698C137.838 27.0407 136.96 26.1628 135.731 26.1628ZM59.1738 59.3491C58.8226 58.9979 58.8226 58.2955 59.1738 57.9444C59.3494 57.7688 59.525 57.5932 59.8761 57.5932H63.5635V28.2698C63.5635 27.0407 62.51 25.9872 61.2809 25.9872H28.4457C27.2166 25.9872 26.1631 27.0407 26.1631 28.2698V135.555C26.1631 136.784 27.2166 137.837 28.4457 137.837H61.2809C62.51 137.837 63.5635 136.784 63.5635 135.555V106.407H59.8761C59.3494 106.407 58.8226 105.88 58.9982 105.353C58.9982 105.178 59.1738 104.827 59.3494 104.651L80.2445 83.4047C80.9468 82.5268 80.9468 81.4733 80.2445 80.5953L59.1738 59.3491Z" fill="white"/>
</svg>
