<svg width="110" height="68" viewBox="0 0 110 68" fill="none" xmlns="http://www.w3.org/2000/svg">
<path d="M91.5581 54.2489H17.779C15.5131 54.2489 13.668 52.4276 13.668 50.1908V18.0899C13.668 15.8531 15.5131 14.0317 17.779 14.0317H91.5581C93.824 14.0317 95.6692 15.8531 95.6692 18.0899V50.194C95.6692 52.4308 93.824 54.2521 91.5581 54.2521V54.2489ZM17.779 14.9808C16.0407 14.9808 14.6294 16.374 14.6294 18.0899V50.194C14.6294 51.9067 16.0407 53.3031 17.779 53.3031H91.5581C93.2931 53.3031 94.7077 51.9099 94.7077 50.194V18.0899C94.7077 16.3772 93.2964 14.9808 91.5581 14.9808H17.779Z" fill="white"/>
<path d="M18.53 50.6733C18.2775 50.6733 18.0607 50.5647 17.9474 50.3378L17.9409 50.635H17.478V48.0275H17.983V49.1204C18.0736 48.9063 18.3099 48.7848 18.5397 48.7848C19.0965 48.7848 19.3037 49.2386 19.3037 49.7211C19.3037 50.2036 19.0933 50.6765 18.53 50.6765V50.6733ZM18.3682 49.1331C18.0509 49.1331 17.97 49.4655 17.97 49.7179C17.97 49.9703 18.0509 50.3218 18.3649 50.3218C18.6789 50.3218 18.7599 49.9767 18.7599 49.7179C18.7599 49.4591 18.6984 49.1331 18.3682 49.1331Z" fill="white"/>
<path d="M20.5823 50.8395C20.4982 51.0919 20.3525 51.453 19.8993 51.453C19.7569 51.453 19.6662 51.4338 19.5368 51.4082L19.5594 51.0631C19.6242 51.0855 19.6921 51.0983 19.7601 51.0983C19.9284 51.0983 20.0385 50.9034 20.0806 50.7851L20.113 50.6829L19.4494 48.8136H19.9835L20.3784 50.2132L20.7571 48.8136H21.2556L20.5823 50.8363V50.8395Z" fill="white"/>
<path d="M23.2626 50.6733C23.0101 50.6733 22.7544 50.6445 22.5116 50.5678L22.531 50.1556C22.7447 50.2643 22.9777 50.2994 23.2173 50.2994C23.4568 50.2994 23.6867 50.2195 23.6867 49.9639C23.6867 49.7786 23.4277 49.6827 23.2497 49.606L23.0004 49.4974C22.7123 49.3792 22.4954 49.2034 22.4954 48.8743C22.4954 48.3502 23.0425 48.1841 23.4892 48.1841C23.6996 48.1841 23.9035 48.2064 24.1042 48.2608L24.0848 48.6602C23.9133 48.5867 23.7061 48.5547 23.5216 48.5547C23.3209 48.5547 23.036 48.6123 23.036 48.8519C23.036 49.0181 23.2497 49.1075 23.4115 49.1715L23.677 49.2737C24.0007 49.4015 24.237 49.5677 24.237 49.9415C24.237 50.4688 23.7449 50.6765 23.2658 50.6765L23.2626 50.6733Z" fill="white"/>
<path d="M25.4573 50.6733C24.8488 50.6733 24.4927 50.2994 24.4927 49.7179C24.4927 49.1363 24.8909 48.7816 25.4573 48.7816C26.0497 48.7816 26.422 49.1171 26.422 49.7179C26.422 50.3186 26.0562 50.6733 25.4573 50.6733ZM25.4573 49.1203C25.1369 49.1203 25.0365 49.4431 25.0365 49.7179C25.0365 50.0182 25.1433 50.3314 25.4573 50.3314C25.7713 50.3314 25.8782 50.0214 25.8782 49.7179C25.8782 49.4399 25.7875 49.1203 25.4573 49.1203Z" fill="white"/>
<path d="M27.992 50.6317L27.9822 50.3282C27.8625 50.5551 27.6456 50.6733 27.3899 50.6733C26.9464 50.6733 26.7716 50.4049 26.7716 49.9895V48.8168H27.2766V49.8776C27.2766 50.0949 27.3089 50.3122 27.5808 50.3122C27.8657 50.3122 27.9466 50.0566 27.9466 49.8169V48.82H28.4516V50.2259C28.4516 50.3601 28.4549 50.5007 28.471 50.6349H27.9952L27.992 50.6317Z" fill="white"/>
<path d="M29.5716 50.6733C29.1541 50.6733 29.0505 50.4081 29.0505 50.0278V49.1459H28.7203V48.8168H29.0505V48.4493L29.5555 48.2863V48.8168H29.9666V49.1459H29.5555V50.0374C29.5555 50.1908 29.5943 50.3122 29.7756 50.3122C29.8468 50.3122 29.9148 50.2994 29.9763 50.2739L29.9892 50.6062C29.8565 50.6509 29.7076 50.6765 29.5684 50.6765L29.5716 50.6733Z" fill="white"/>
<path d="M31.4783 49.5677C31.4783 49.3504 31.4427 49.1363 31.1707 49.1363C30.8988 49.1363 30.805 49.3887 30.805 49.6252V50.6317H30.3V48.0243H30.805V49.1171C30.915 48.8935 31.1157 48.7816 31.3682 48.7816C31.802 48.7816 31.9832 49.0436 31.9832 49.4558V50.6349H31.4783V49.5677Z" fill="white"/>
<path d="M34.0906 49.7434V50.6349H33.5597V48.2224H34.5891C35.0585 48.2224 35.4145 48.4908 35.4145 48.9733C35.4145 49.4878 35.0487 49.7434 34.5761 49.7434H34.0906ZM34.3819 48.5771H34.0841V49.3792H34.2751C34.5729 49.3792 34.8642 49.3408 34.8642 48.9733C34.8642 48.6889 34.6409 48.5739 34.3787 48.5739L34.3819 48.5771Z" fill="white"/>
<path d="M36.4569 50.6733C35.8483 50.6733 35.4922 50.2994 35.4922 49.7179C35.4922 49.1363 35.8904 48.7816 36.4569 48.7816C37.0492 48.7816 37.4215 49.1171 37.4215 49.7179C37.4215 50.3186 37.0557 50.6733 36.4569 50.6733ZM36.4569 49.1203C36.1364 49.1203 36.036 49.4431 36.036 49.7179C36.036 50.0182 36.1429 50.3314 36.4569 50.3314C36.7709 50.3314 36.8777 50.0214 36.8777 49.7179C36.8777 49.4399 36.787 49.1203 36.4569 49.1203Z" fill="white"/>
<path d="M37.7711 50.6317V48.0243H38.2761V50.6317H37.7711Z" fill="white"/>
<path d="M39.1339 49.8521C39.1371 50.1652 39.3735 50.3633 39.6842 50.3633C39.859 50.3633 40.0824 50.325 40.2377 50.2419L40.2604 50.5774C40.0565 50.6509 39.8007 50.6765 39.5839 50.6765C38.9688 50.6765 38.6354 50.3218 38.6354 49.7211C38.6354 49.181 39.0012 48.7848 39.5321 48.7848C40.1212 48.7848 40.3575 49.1938 40.3575 49.7434V49.8553H39.1371L39.1339 49.8521ZM39.5321 49.082C39.2504 49.082 39.1339 49.3728 39.1339 49.5837H39.8914C39.8914 49.3568 39.8105 49.082 39.5321 49.082Z" fill="white"/>
<path d="M52.49 25.5767C50.4442 25.5767 48.9131 24.5094 48.9131 22.3877C48.9131 20.3842 50.5672 19.1987 52.49 19.1987C53.0241 19.1987 53.6165 19.2914 54.1344 19.4128L54.0794 20.7101C53.6942 20.5695 53.2443 20.4705 52.8299 20.4705C51.6581 20.4705 50.8488 21.2214 50.8488 22.3877C50.8488 23.554 51.5901 24.3049 52.7911 24.3049C53.241 24.3049 53.6813 24.2218 54.0956 24.0557L54.1506 25.3243C53.6327 25.5 53.0338 25.5735 52.49 25.5735V25.5767Z" fill="white"/>
<path d="M54.8919 25.4776V18.7929H56.6302V25.4744H54.8919V25.4776Z" fill="white"/>
<path d="M57.6499 20.0455V18.8696H59.3882V20.0455H57.6499ZM57.6499 25.4776V20.7964H59.3882V25.4776H57.6499Z" fill="white"/>
<path d="M66.3252 25.4776V22.6689C66.3252 22.2599 66.241 21.8732 65.7425 21.8732C65.2181 21.8732 65.0951 22.4005 65.0951 22.8478V25.4808H63.3762V22.6721C63.3762 22.2727 63.2921 21.8764 62.8033 21.8764C62.3145 21.8764 62.1462 22.4037 62.1462 22.851V25.484H60.4079V21.8125C60.4079 21.4802 60.4079 21.1351 60.369 20.8028H62.0134L62.0329 21.5729C62.3048 21.0169 62.8583 20.7101 63.5737 20.7101C64.2891 20.7101 64.7941 21.0264 64.9915 21.5984C65.2343 21.0137 65.885 20.7101 66.4838 20.7101C67.7139 20.7101 68.0603 21.4706 68.0603 22.5634V25.484H66.322L66.3252 25.4776Z" fill="white"/>
<path d="M71.9868 25.4776L71.9577 24.7746C71.6016 25.2571 71.0481 25.5799 70.4363 25.5799C69.5525 25.5799 68.7918 25.1613 68.7918 24.2091C68.7918 22.9501 70.0316 22.5315 71.2714 22.5315C71.498 22.5315 71.7408 22.5507 71.9739 22.5698V22.458C71.9739 21.8541 71.4657 21.6687 70.8474 21.6687C70.378 21.6687 69.8245 21.7901 69.3648 22.0394L69.3098 20.9913C69.8633 20.8251 70.5399 20.7037 71.1225 20.7037C72.4659 20.7037 73.6312 21.0552 73.6312 22.5762V24.3081C73.6312 24.8833 73.6312 25.1709 73.6701 25.4744H71.9901L71.9868 25.4776ZM71.9771 23.3367H71.7796C71.2455 23.3367 70.4071 23.4102 70.4071 24.0685C70.4071 24.4679 70.7632 24.6053 71.074 24.6053C71.7117 24.6053 71.9739 24.0876 71.9739 23.5316V23.3367H71.9771Z" fill="white"/>
<path d="M76.4928 25.5767C75.3372 25.5767 74.9811 24.9184 74.9811 23.8512V21.8573H74.1556V20.79H74.9811V19.9081L76.7194 19.3712V20.79H77.752V21.8573H76.7194V23.7489C76.7194 24.1196 76.823 24.4072 77.2535 24.4072C77.4218 24.4072 77.5999 24.3688 77.7617 24.3049L77.8103 25.3722C77.3959 25.5032 76.9266 25.5767 76.496 25.5767H76.4928Z" fill="white"/>
<path d="M79.937 23.5572C79.9467 24.2889 80.6039 24.6053 81.2707 24.6053C81.7498 24.6053 82.3227 24.5318 82.7533 24.2985L82.8083 25.3179C82.2159 25.5128 81.4941 25.5767 80.8661 25.5767C79.2508 25.5767 78.2376 24.7619 78.2376 23.1098C78.2376 21.5793 79.3188 20.7005 80.7528 20.7005C82.4069 20.7005 83.0543 21.7294 83.0543 23.2664V23.554H79.937V23.5572ZM80.7625 21.6304C80.1248 21.6304 79.9273 22.2695 79.9273 22.752H81.5232C81.5232 22.2599 81.3808 21.6304 80.7625 21.6304Z" fill="white"/>
<path d="M52.6389 35.7029L50.8262 30.9098V35.7029H49.2109V29.5198H51.943L53.7654 34.3225V29.5198H55.371V35.7029H52.6389Z" fill="white"/>
<path d="M57.9347 33.7825C57.9445 34.5142 58.6016 34.8305 59.2684 34.8305C59.7475 34.8305 60.3205 34.757 60.751 34.5238L60.806 35.5431C60.2136 35.738 59.4918 35.8019 58.8638 35.8019C57.2485 35.8019 56.2353 34.9871 56.2353 33.3351C56.2353 31.8045 57.3165 30.9258 58.7505 30.9258C60.4046 30.9258 61.052 31.9547 61.052 33.4917V33.7793H57.9347V33.7825ZM58.7602 31.8556C58.1225 31.8556 57.925 32.4947 57.925 32.9772H59.5209C59.5209 32.4851 59.3785 31.8556 58.7602 31.8556Z" fill="white"/>
<path d="M64.9656 35.7029L64.9462 34.9328C64.6549 35.5175 64.0431 35.7955 63.4054 35.7955C62.3177 35.7955 61.7901 35.1916 61.7901 34.1371V31.0216H63.5284V33.7185C63.5284 34.1435 63.5737 34.626 64.1305 34.626C64.6873 34.626 64.8329 34.0988 64.8329 33.6355V31.0216H66.5615V34.6835C66.5615 35.0159 66.5712 35.3706 66.6068 35.7029H64.9624H64.9656Z" fill="white"/>
<path d="M69.4878 35.8019C68.3322 35.8019 67.9761 35.1437 67.9761 34.0764V32.0825H67.1507V31.0152H67.9761V30.1333L69.7144 29.5965V31.0152H70.747V32.0825H69.7144V33.9742C69.7144 34.3448 69.818 34.6324 70.2485 34.6324C70.4168 34.6324 70.5949 34.5941 70.7567 34.5302L70.8053 35.5974C70.3909 35.7284 69.9216 35.8019 69.491 35.8019H69.4878Z" fill="white"/>
<path d="M74.8225 32.4468C74.6898 32.3925 74.5409 32.3829 74.3984 32.3829C73.5827 32.3829 73.2234 33.0507 73.2234 33.7729V35.6997H71.4851V32.0282C71.4851 31.6959 71.4851 31.3603 71.4462 31.028H73.0907L73.1101 31.9451C73.3529 31.4083 73.8222 30.9162 74.4988 30.9162C74.6218 30.9162 74.7416 30.9258 74.8646 30.9641L74.8192 32.4468H74.8225Z" fill="white"/>
<path d="M78.2764 35.7029L78.2473 34.9999C77.8912 35.4824 77.3377 35.8051 76.7259 35.8051C75.8422 35.8051 75.0814 35.3865 75.0814 34.4343C75.0814 33.1753 76.3212 32.7567 77.561 32.7567C77.7876 32.7567 78.0304 32.7759 78.2635 32.7951V32.6832C78.2635 32.0793 77.7553 31.894 77.137 31.894C76.6676 31.894 76.1141 32.0154 75.6544 32.2646L75.5994 31.2166C76.1529 31.0504 76.8295 30.929 77.4121 30.929C78.7555 30.929 79.9209 31.2805 79.9209 32.8015V34.5334C79.9209 35.1085 79.9208 35.3961 79.9597 35.6997H78.2797L78.2764 35.7029ZM78.2667 33.562H78.0693C77.5351 33.562 76.6967 33.6355 76.6967 34.2937C76.6967 34.6931 77.0528 34.8305 77.3636 34.8305C78.0013 34.8305 78.2635 34.3129 78.2635 33.7569V33.562H78.2667Z" fill="white"/>
<path d="M80.8855 35.7029V29.0213H82.6238V35.7029H80.8855Z" fill="white"/>
<path d="M52.49 46.0272C50.4442 46.0272 48.9131 44.9599 48.9131 42.8382C48.9131 40.8347 50.5672 39.6492 52.49 39.6492C53.0241 39.6492 53.6165 39.7419 54.1344 39.8633L54.0794 41.1606C53.6942 41.02 53.2443 40.921 52.8299 40.921C51.6581 40.921 50.8488 41.6719 50.8488 42.8382C50.8488 44.0045 51.5901 44.7554 52.7911 44.7554C53.241 44.7554 53.6813 44.6723 54.0956 44.5062L54.1506 45.7748C53.6327 45.9505 53.0338 46.024 52.49 46.024V46.0272Z" fill="white"/>
<path d="M57.3035 46.0272C55.6688 46.0272 54.6362 45.174 54.6362 43.5603C54.6362 41.9467 55.8015 41.151 57.3035 41.151C58.8055 41.151 59.9709 41.8924 59.9709 43.5603C59.9709 45.2283 58.8994 46.0272 57.3035 46.0272ZM57.3035 42.2375C56.6464 42.2375 56.4878 42.9884 56.4878 43.5635C56.4878 44.241 56.6561 44.9344 57.3035 44.9344C57.9509 44.9344 58.1193 44.2474 58.1193 43.5635C58.1193 42.9884 57.9865 42.2375 57.3035 42.2375Z" fill="white"/>
<path d="M66.6554 45.9281V43.1194C66.6554 42.7104 66.5712 42.3237 66.0727 42.3237C65.5483 42.3237 65.4253 42.851 65.4253 43.2983V45.9313H63.7064V43.1226C63.7064 42.7232 63.6223 42.3269 63.1335 42.3269C62.6447 42.3269 62.4763 42.8542 62.4763 43.3015V45.9345H60.738V42.263C60.738 41.9307 60.738 41.5856 60.6992 41.2533H62.3436L62.363 42.0234C62.635 41.4674 63.1885 41.1606 63.9039 41.1606C64.6193 41.1606 65.1243 41.477 65.3217 42.0489C65.5645 41.4642 66.2151 41.1606 66.814 41.1606C68.0441 41.1606 68.3904 41.9211 68.3904 43.0139V45.9345H66.6521L66.6554 45.9281Z" fill="white"/>
<path d="M72.5306 46.0272C71.948 46.0272 71.375 45.7204 71.1517 45.174V47.9284H69.4134V42.4611C69.4134 41.8955 69.3939 41.5632 69.3745 41.2469H71.0189L71.0481 42.017C71.32 41.4418 71.9415 41.1542 72.5792 41.1542C74.0067 41.1542 74.57 42.3141 74.57 43.5635C74.57 44.8129 74.0165 46.0304 72.5339 46.0304L72.5306 46.0272ZM71.9221 42.2822C71.2261 42.2822 71.1063 43.0235 71.1063 43.5603C71.1063 44.0972 71.2294 44.896 71.9156 44.896C72.6019 44.896 72.7216 44.1004 72.7216 43.5603C72.7216 43.0203 72.618 42.2822 71.9253 42.2822H71.9221Z" fill="white"/>
<path d="M78.2376 45.9281L78.2085 45.2251C77.8524 45.7076 77.2988 46.0304 76.687 46.0304C75.8033 46.0304 75.0426 45.6118 75.0426 44.6596C75.0426 43.4006 76.2824 42.982 77.5222 42.982C77.7488 42.982 77.9916 43.0012 78.2246 43.0203V42.9085C78.2246 42.3046 77.7164 42.1192 77.0981 42.1192C76.6288 42.1192 76.0752 42.2406 75.6156 42.4899L75.5605 41.4418C76.1141 41.2756 76.7906 41.1542 77.3733 41.1542C78.7167 41.1542 79.882 41.5057 79.882 43.0267V44.7586C79.882 45.3338 79.882 45.6214 79.9209 45.9249H78.2408L78.2376 45.9281ZM78.2279 43.7872H78.0304C77.4963 43.7872 76.6579 43.8607 76.6579 44.519C76.6579 44.9184 77.014 45.0558 77.3247 45.0558C77.9624 45.0558 78.2246 44.5381 78.2246 43.9821V43.7872H78.2279Z" fill="white"/>
<path d="M83.8895 45.9281V43.2216C83.8895 42.7966 83.8442 42.3237 83.2874 42.3237C82.7306 42.3237 82.5817 42.8414 82.5817 43.3047V45.9281H80.8434V42.2566C80.8434 41.9243 80.8434 41.5792 80.8046 41.2469H82.449L82.4684 42.017C82.7598 41.4322 83.3716 41.1542 84.0093 41.1542C85.1001 41.1542 85.6245 41.7581 85.6245 42.8126V45.9281H83.8862H83.8895Z" fill="white"/>
<path d="M89.645 46.2605C89.4475 46.8644 89.0817 48.0211 87.6153 48.0211C87.146 48.0211 86.8255 47.9668 86.4144 47.8901L86.4694 46.8069C86.6572 46.8612 86.8643 46.8899 87.0618 46.8899C87.4373 46.8899 87.7189 46.5576 87.8322 46.27L87.9067 46.0559L86.1684 41.2469H87.9714L88.826 44.5573L89.577 41.2469H91.2667L89.6417 46.2605H89.645Z" fill="white"/>
<path d="M22.5343 42.6624C22.5051 42.5794 22.4663 42.5123 22.4145 42.4643C22.3627 42.4164 22.2947 42.394 22.2041 42.394C22.1135 42.394 22.0455 42.4164 21.9937 42.4643C21.9419 42.5123 21.903 42.5794 21.8772 42.6624C21.8513 42.7455 21.8318 42.8478 21.8254 42.9628C21.8156 43.0778 21.8124 43.2025 21.8124 43.3367C21.8124 43.4581 21.8156 43.5763 21.8221 43.6882C21.8286 43.8032 21.8448 43.9023 21.8707 43.9885C21.8966 44.0748 21.9354 44.1451 21.9872 44.1994C22.039 44.2537 22.1102 44.2793 22.2041 44.2793C22.298 44.2793 22.3659 44.2537 22.421 44.1994C22.476 44.1451 22.5148 44.0748 22.5407 43.9885C22.5666 43.9023 22.5861 43.8 22.5925 43.6882C22.599 43.5731 22.6023 43.4581 22.6023 43.3367C22.6023 43.2025 22.599 43.0778 22.5893 42.9628C22.5796 42.8478 22.5634 42.7487 22.5343 42.6624Z" fill="white"/>
<path d="M31.2938 18.5213C23.5701 18.5213 17.3097 24.7011 17.3097 32.3254V46.1294H31.2938C39.0174 46.1294 45.2779 39.9496 45.2779 32.3254V18.5213H31.2938ZM20.6147 44.7394H18.4297V44.1579L18.8829 43.8032C18.9508 43.7489 19.0382 43.6882 19.1418 43.6211C19.2454 43.554 19.3458 43.4773 19.4396 43.3942C19.5335 43.3111 19.6177 43.2248 19.6857 43.1354C19.7569 43.0427 19.7892 42.95 19.7892 42.851C19.7892 42.7743 19.7731 42.7104 19.7407 42.6592C19.7083 42.6081 19.6662 42.5666 19.6112 42.5314C19.5594 42.4995 19.5011 42.4771 19.4332 42.4643C19.3684 42.4515 19.3005 42.4452 19.2325 42.4452C19.1095 42.4452 18.9865 42.4643 18.8602 42.4995C18.734 42.5346 18.6174 42.5762 18.5074 42.6241L18.4847 42.0553C18.6369 42.0074 18.7922 41.9658 18.9444 41.9339C19.0965 41.9019 19.2551 41.886 19.417 41.886C19.5594 41.886 19.7018 41.8987 19.841 41.9275C19.9835 41.9563 20.1065 42.001 20.2198 42.0649C20.3331 42.1288 20.4205 42.2183 20.4917 42.3269C20.5629 42.4388 20.5953 42.5762 20.5953 42.7391C20.5953 42.8733 20.5629 43.0012 20.4982 43.1194C20.4334 43.2376 20.3525 43.3495 20.2521 43.4549C20.1518 43.5603 20.045 43.6562 19.9284 43.7425C19.8119 43.832 19.7018 43.9118 19.595 43.9821L19.3684 44.193H20.6115V44.7362L20.6147 44.7394ZM23.35 43.8895C23.3079 44.0652 23.24 44.2186 23.1461 44.3496C23.0522 44.4806 22.926 44.5861 22.7738 44.666C22.6217 44.7458 22.4339 44.7842 22.2106 44.7842C21.9872 44.7842 21.7995 44.7458 21.6473 44.6691C21.4952 44.5925 21.3689 44.487 21.2751 44.356C21.1812 44.225 21.1132 44.0716 21.0711 43.8959C21.029 43.7201 21.0096 43.5348 21.0096 43.3367C21.0096 43.1386 21.0323 42.9532 21.0744 42.7775C21.1164 42.6017 21.1844 42.4484 21.2815 42.3173C21.3754 42.1863 21.5017 42.0809 21.6538 42.0042C21.8059 41.9275 21.9904 41.8892 22.2106 41.8892C22.4307 41.8892 22.6152 41.9275 22.7706 42.0042C22.926 42.0809 23.049 42.1863 23.1428 42.3205C23.2367 42.4547 23.3079 42.6081 23.35 42.7839C23.3921 42.9596 23.4148 43.1449 23.4148 43.3367C23.4148 43.5284 23.3953 43.7137 23.3532 43.8895H23.35ZM25.9008 44.7394H23.7158V44.1579L24.169 43.8032C24.237 43.7489 24.3244 43.6882 24.428 43.6211C24.5315 43.554 24.6319 43.4773 24.7258 43.3942C24.8196 43.3111 24.9038 43.2248 24.9718 43.1354C25.043 43.0427 25.0754 42.95 25.0754 42.851C25.0754 42.7743 25.0592 42.7104 25.0268 42.6592C24.9944 42.6081 24.9524 42.5666 24.8973 42.5314C24.8455 42.4995 24.7873 42.4771 24.7193 42.4643C24.6545 42.4515 24.5866 42.4452 24.5186 42.4452C24.3956 42.4452 24.2726 42.4643 24.1463 42.4995C24.0201 42.5346 23.9036 42.5762 23.7935 42.6241L23.7708 42.0553C23.923 42.0074 24.0784 41.9658 24.2305 41.9339C24.3826 41.9019 24.5412 41.886 24.7031 41.886C24.8455 41.886 24.988 41.8987 25.1272 41.9275C25.2696 41.9563 25.3926 42.001 25.5059 42.0649C25.6192 42.1288 25.7066 42.2183 25.7778 42.3269C25.849 42.4388 25.8814 42.5762 25.8814 42.7391C25.8814 42.8733 25.849 43.0012 25.7843 43.1194C25.7195 43.2376 25.6386 43.3495 25.5383 43.4549C25.4379 43.5603 25.3311 43.6562 25.2146 43.7425C25.098 43.832 24.988 43.9118 24.8811 43.9821L24.6545 44.193H25.8976V44.7362L25.9008 44.7394ZM28.1473 44.7394H27.3478V42.7072L26.7424 43.1418L26.4964 42.5762L27.4611 41.9275H28.1473V44.7394ZM34.9063 40.7548C34.2395 34.5174 33.1324 33.2936 32.2098 32.271C32.0998 32.1496 31.8311 32.0122 31.8635 31.862C32.4818 28.999 36.7482 29.4144 36.7482 29.4144C36.7482 29.4144 37.114 29.0661 35.5472 28.8264C34.738 28.7018 33.4011 28.5772 32.7342 28.4078C30.9183 27.9477 30.1317 27.152 28.6297 28.1426C27.3413 28.9926 27.6391 30.325 26.8428 31.3124C25.0818 33.4981 24.4312 36.7797 24.3308 38.6139C22.8515 37.0098 21.9484 34.8753 21.9484 32.5362C21.9484 27.545 26.0465 23.4997 31.1028 23.4997C36.1591 23.4997 40.2572 27.545 40.2572 32.5362C40.2572 36.1854 38.0624 39.3296 34.9096 40.7548H34.9063Z" fill="white"/>
</svg>
