<svg width="103" height="40" viewBox="0 0 103 40" fill="none" xmlns="http://www.w3.org/2000/svg">
<path d="M20.8203 40C32.319 40 41.6406 31.0457 41.6406 20C41.6406 17.1623 41.0254 14.4626 39.916 12.0173C39.6651 12.3009 39.3795 12.5771 39.0595 12.846C38.9286 12.956 38.8007 13.06 38.676 13.158C39.5554 15.2739 40.0391 17.5827 40.0391 20C40.0391 30.1961 31.4345 38.4616 20.8203 38.4616C10.2061 38.4616 1.60156 30.1961 1.60156 20C1.60156 9.804 10.2061 1.53849 20.8203 1.53849C23.9951 1.53849 26.9902 2.27799 29.6289 3.58744V3.17436C29.6289 2.91451 29.7354 2.68034 29.9323 2.49745C29.9977 2.4368 30.1748 2.35163 30.4294 2.2528C27.5546 0.813587 24.2864 0 20.8203 0C9.32157 0 0 8.9543 0 20C0 31.0457 9.32157 40 20.8203 40Z" fill="white"/>
<path d="M45.5178 3.38379V37.2299H45.4512V3.39917L45.5178 3.38379Z" fill="white"/>
<path d="M17.185 18.1491H21.2957C21.6821 18.1491 22.0687 18.1486 22.4553 18.1481C23.4605 18.1468 24.4657 18.1455 25.4674 18.1529C25.7777 18.1555 25.9541 18.1157 25.9448 17.745C25.9327 17.3014 25.9348 16.857 25.9369 16.4126C25.9398 15.789 25.9427 15.1653 25.9063 14.5444C25.7684 12.2007 23.8444 10.2599 21.6179 10.1585C19.1741 10.0469 17.185 11.6504 16.7633 14.0723C16.6335 14.8396 16.6507 15.6113 16.6678 16.3828C16.6782 16.8484 16.6885 17.3139 16.6665 17.7784C16.6482 18.1547 16.8792 18.1522 17.1234 18.1495C17.1439 18.1493 17.1645 18.1491 17.185 18.1491Z" fill="white"/>
<path d="M19.898 25.9376C19.8028 27.066 19.8041 27.066 20.9712 27.066C21.2027 27.0533 21.4347 27.0538 21.6661 27.0673C22.1306 27.1199 22.2555 26.9606 22.1808 26.4953C22.1214 26.1192 22.0873 25.7389 22.0533 25.3585C22.0188 24.9735 21.9843 24.5885 21.9235 24.2077C21.8604 23.7887 21.9209 23.5137 22.2465 23.2065C22.8879 22.5761 22.9096 21.5501 22.2954 20.8932C21.7045 20.2251 20.7024 20.1139 19.9791 20.6362C19.2288 21.2029 18.9264 22.3172 19.5699 22.9495C20.1511 23.5268 20.0893 24.1022 20.0243 24.7083C20.0123 24.8201 20.0001 24.9329 19.9919 25.0469C19.9806 25.2104 19.9611 25.3735 19.9415 25.5368C19.9255 25.6701 19.9096 25.8036 19.898 25.9376Z" fill="white"/>
<path fill-rule="evenodd" clip-rule="evenodd" d="M20.8205 2.46099C24.0146 2.46099 27.0172 3.24892 29.6291 4.63347V9.0628C29.6291 9.56345 29.7339 10.0586 29.9417 10.5453C30.1424 11.0155 30.3928 11.4357 30.6931 11.8047C30.9849 12.1631 31.3305 12.5099 31.7297 12.8454C32.1204 13.1738 32.4834 13.4482 32.8197 13.6689C33.1508 13.8863 33.496 14.0916 33.8552 14.2848L34.1733 14.4539L34.6071 14.671L34.7402 14.7313C34.7812 14.7497 34.8189 14.7663 34.8538 14.7815L34.9929 14.8401L35.0726 14.8703L35.1077 14.882C35.2003 14.9092 35.2965 14.9226 35.3947 14.9226C35.5186 14.9226 35.6386 14.9013 35.7516 14.8587L35.8991 14.7973L36.162 14.6806L36.2527 14.6381C36.3017 14.6145 36.3562 14.5875 36.4166 14.5569L36.6161 14.4539L36.9321 14.2859C37.2598 14.1097 37.5742 13.9244 37.8769 13.7293C38.6531 15.6764 39.0783 17.7902 39.0783 19.9995C39.0783 29.6857 30.904 37.5379 20.8205 37.5379C10.737 37.5379 2.56266 29.6857 2.56266 19.9995C2.56266 10.3132 10.737 2.46099 20.8205 2.46099ZM13.8937 29.2303C13.0046 29.2303 12.8138 29.0413 12.8125 28.173V18.6017C12.8125 17.7653 13.0298 17.5265 13.9123 17.5725C14.4807 17.6006 14.5403 17.3771 14.5456 16.9148C14.5497 16.5902 14.5405 16.2647 14.5314 15.9391C14.5078 15.0967 14.4842 14.2531 14.6887 13.4196C15.4161 10.4544 18.4385 8.3422 21.531 8.64357C24.8077 8.96155 27.3027 11.4722 27.4233 14.5906C27.4564 15.4181 27.463 16.2508 27.4551 17.077C27.4551 17.4116 27.5174 17.5623 27.9215 17.5686C29.0491 17.584 29.1484 17.7053 29.1484 18.801V28.1155C29.1484 29.0643 28.9762 29.2303 27.993 29.2303H13.8937Z" fill="white"/>
<path d="M56.3751 25.3654C56.3751 26.8437 56.3751 26.8324 54.8345 27.0396C54.2325 27.1121 53.6218 27.0765 53.0329 26.9347C51.8894 26.7108 51.0379 25.7752 50.9481 24.6439C50.8086 23.4761 51.4757 22.3582 52.5874 21.8969C53.5966 21.4572 54.641 21.4673 55.7048 21.6808C56.0205 21.744 56.2491 21.8476 56.0516 22.2229C55.9217 22.4756 56.0659 22.9595 55.4463 22.7422C55.016 22.596 54.5557 22.5527 54.1045 22.6158C52.8965 22.7763 52.286 23.4334 52.3756 24.4796C52.4575 25.4121 53.2953 26.0363 54.4033 26.0224C54.8982 26.0161 55.1502 25.8746 55.0943 25.33C55.0619 25.009 54.98 24.8524 54.6423 24.9016C54.1734 24.9699 54.0812 24.7589 54.0669 24.3343C54.05 23.8137 54.363 23.8731 54.6904 23.8769C54.7332 23.8769 54.7774 23.8769 54.8203 23.8769C56.3751 23.8744 56.3751 23.8744 56.3751 25.3654Z" fill="white"/>
<path d="M79.2414 21.5377C79.5081 21.5441 79.7743 21.5633 80.0389 21.5952C80.8192 21.7202 80.855 21.8164 80.5892 22.5252C80.4922 22.784 80.4084 22.8365 80.1253 22.734C79.6954 22.5569 79.216 22.5157 78.759 22.6165C78.5423 22.6715 78.3243 22.7715 78.2911 23.009C78.2579 23.2465 78.4426 23.3928 78.6553 23.4765C79.082 23.6441 79.5232 23.7828 79.9472 23.9553C80.6371 24.2353 81.0571 24.7116 81.0385 25.4467C81.0199 26.1467 80.5307 26.6968 79.7292 26.9255C78.9278 27.1543 78.1595 27.098 77.37 26.9193C76.9128 26.8143 76.7892 26.6243 76.93 26.1767C77.063 25.7717 77.1746 25.6254 77.6305 25.8255C78.1008 26.0222 78.6273 26.0661 79.1271 25.9505C79.3823 25.8967 79.579 25.7705 79.6056 25.5004C79.6251 25.2831 79.4831 25.0818 79.2627 25.0141C78.961 24.8891 78.6447 24.7929 78.3323 24.6891C77.2424 24.3228 76.7719 23.7466 76.9048 22.939C77.0377 22.1314 77.798 21.5977 78.8454 21.5539C78.9783 21.5539 79.1112 21.5539 79.2441 21.5539L79.2414 21.5377Z" fill="white"/>
<path d="M90.7976 23.3884C91.4439 22.7852 92.113 22.6329 92.8422 22.8847C93.5956 23.1517 93.7909 23.7851 93.8244 24.4614C93.8578 25.1086 93.8244 25.7597 93.8511 26.4069C93.8685 26.8767 93.5166 26.752 93.257 26.757C92.9975 26.7621 92.6562 26.8527 92.6777 26.3918C92.7044 25.8075 92.6937 25.2194 92.6777 24.6288C92.6629 23.9841 92.3512 23.6214 91.8413 23.6126C91.3315 23.6038 90.9167 24.0231 90.9047 24.62C90.8926 25.164 90.8686 25.7106 90.9047 26.2571C90.9395 26.7041 90.7334 26.7797 90.3253 26.7608C89.9613 26.7482 89.6951 26.7608 89.7191 26.2772C89.7646 25.3366 89.7191 24.3883 89.7446 23.4514C89.7446 23.2537 89.5171 22.8986 89.972 22.857C90.3427 22.8407 90.7789 22.7462 90.7976 23.3884Z" fill="white"/>
<path d="M59.5939 30.3558C59.017 30.4008 58.5788 30.3982 58.121 30.1709C57.5229 29.867 56.8005 29.9254 56.261 30.3212C55.6789 30.7154 55.671 31.3371 56.2139 31.7712C56.9385 32.3517 58.1393 32.2014 58.7345 31.3743C58.2727 31.3743 57.8712 31.3743 57.4696 31.3743C57.2826 31.3743 57.0942 31.3242 57.0994 31.1059C57.1047 30.8875 57.2969 30.849 57.4827 30.849C58.1799 30.849 58.8771 30.858 59.5756 30.849C59.9143 30.8413 59.9248 31.0378 59.879 31.2651C59.7933 31.6491 59.5302 31.972 59.1674 32.1385C57.9653 32.7614 56.7358 32.7806 55.5415 32.1513C54.5121 31.6106 54.5265 30.5665 55.5311 29.986C56.8331 29.2732 58.4475 29.4202 59.5939 30.3558Z" fill="white"/>
<path d="M62.2726 31.2687C62.6219 30.7343 62.9286 30.27 63.2274 29.8005C63.3258 29.6471 63.4202 29.5118 63.6298 29.5482C63.8161 29.582 63.8472 29.7446 63.8886 29.8838C64.1189 30.6016 64.3543 31.3143 64.5523 32.0451C64.5937 32.196 64.8951 32.4847 64.5083 32.5497C64.2392 32.5952 63.8368 32.7591 63.6932 32.2896C63.5742 31.8995 63.4681 31.5158 63.3465 31.0906C63.0127 31.3793 62.8898 31.759 62.6698 32.0698C62.402 32.4483 62.1355 32.4678 61.8754 32.0776C61.6632 31.7616 61.4731 31.4274 61.2221 31.0269C61.081 31.4846 60.9542 31.8487 60.8611 32.2207C60.799 32.4704 60.68 32.564 60.4173 32.577C59.9671 32.5965 59.7795 32.5172 59.9761 32.0048C60.2349 31.3234 60.4303 30.6133 60.6463 29.9137C60.6968 29.7498 60.7045 29.5599 60.931 29.5391C61.1367 29.5209 61.235 29.6692 61.3307 29.8135C61.6348 30.2869 61.9362 30.7512 62.2726 31.2687Z" fill="white"/>
<path d="M75.901 24.1082C75.901 24.9622 75.877 25.8175 75.9115 26.6703C75.9295 27.1179 75.6192 27.0819 75.2879 27.0703C74.9881 27.0613 74.6283 27.1642 74.6328 26.6986C74.6508 25.0111 74.6538 23.3249 74.6328 21.6387C74.6328 21.1242 75.0091 21.2605 75.3314 21.2361C75.7136 21.2065 75.931 21.2734 75.913 21.6747C75.8785 22.485 75.901 23.2979 75.901 24.1082Z" fill="white"/>
<path d="M58.2852 24.1749C58.2852 24.9874 58.2588 25.8025 58.2956 26.6175C58.3163 27.0842 58.1035 27.0662 57.8101 27.0752C57.4915 27.0842 57.3304 27.0341 57.3362 26.5995C57.3599 24.9523 57.3599 23.3046 57.3362 21.6565C57.3293 21.1564 57.595 21.258 57.8538 21.2348C58.1529 21.2091 58.3048 21.2759 58.2921 21.6745C58.2657 22.505 58.2852 23.3406 58.2852 24.1749Z" fill="white"/>
<path d="M83.2628 25.1144C83.2628 25.6048 83.2195 26.1004 83.2748 26.5869C83.3331 27.0928 82.9952 27.0542 82.5989 27.0735C82.1503 27.0953 81.9933 26.9836 82.0008 26.5779C82.0352 25.5509 82.0382 24.5238 82.0008 23.5032C81.9828 23.0089 82.3327 23.0949 82.6752 23.0795C83.0505 23.0615 83.2927 23.1026 83.2643 23.5121C83.2389 24.0424 83.2628 24.5777 83.2628 25.1144Z" fill="white"/>
<path d="M83.2814 21.8086C83.2617 22.2026 83.0506 22.4363 82.6822 22.459C82.2889 22.4817 82.0109 22.2774 82.0004 21.8447C81.9899 21.444 82.2561 21.2396 82.6153 21.2303C82.9746 21.2209 83.2158 21.4213 83.2814 21.8086Z" fill="white"/>
<path d="M53.4655 31.7838C53.7906 31.5792 53.5402 30.9618 54.0187 31.118C54.3046 31.211 53.9702 31.6015 53.9204 31.8619C53.8597 32.1232 53.7754 32.3791 53.6687 32.6269C53.5835 32.8463 53.3868 32.9914 53.1613 32.8885C52.8584 32.7484 53.1351 32.6492 53.215 32.4992C53.3776 32.1929 53.0629 31.9239 53.0236 31.6313C53 31.4515 52.684 31.2209 52.9725 31.1056C53.3121 30.9692 53.2871 31.3399 53.3802 31.5222C53.4144 31.6076 53.4428 31.695 53.4655 31.7838Z" fill="white"/>
<path fill-rule="evenodd" clip-rule="evenodd" d="M88.0604 22.8554C88.1148 22.8653 88.1675 22.8748 88.2164 22.8809C88.4482 22.9107 88.4156 23.0686 88.3852 23.2158C88.3747 23.2667 88.3645 23.3163 88.3655 23.3589C88.3659 23.6303 88.3687 23.9014 88.3715 24.1723C88.3799 24.9836 88.3882 25.7923 88.3303 26.5975C88.2313 28.0095 87.541 28.5768 86.0613 28.6131C85.6547 28.6233 85.2485 28.5797 84.8543 28.4836C84.4827 28.3942 84.2901 28.2672 84.4257 27.81C84.545 27.4232 84.7176 27.4952 84.9061 27.5739C84.9619 27.5972 85.0191 27.6211 85.0767 27.6338C85.3356 27.7032 85.6008 27.7488 85.8688 27.7698C86.8222 27.797 87.2507 27.3423 87.187 26.4083C86.0044 27.0793 84.9913 26.9744 84.3132 26.1117C83.6825 25.3059 83.8331 23.982 84.6319 23.2773C85.2937 22.6944 86.1942 22.605 87.008 23.0467C87.0388 23.0648 87.0677 23.0889 87.0956 23.1122C87.1977 23.1974 87.287 23.272 87.4148 23.0014C87.5294 22.7592 87.8126 22.8105 88.0604 22.8554ZM85.063 24.8668C85.0739 25.5119 85.5581 26.0339 86.1589 26.0534C86.8207 26.0754 87.2059 25.6324 87.2059 24.837C87.2099 24.0001 86.8831 23.5947 86.205 23.5947C85.5486 23.5934 85.0468 24.153 85.063 24.8668Z" fill="white"/>
<path fill-rule="evenodd" clip-rule="evenodd" d="M67.4214 22.9741C67.977 22.9922 68.4919 23.2585 68.8136 23.6942C69.4013 24.5002 69.2817 25.8748 68.5573 26.5456C67.7974 27.2544 66.7418 27.2582 65.7426 26.5254C65.752 27.0479 65.412 27.0108 65.099 26.9766C65.06 26.9724 65.0215 26.9682 64.9841 26.9651C64.6348 26.937 64.6896 26.7425 64.741 26.5599C64.7589 26.4965 64.7764 26.4345 64.7764 26.3814C64.7702 25.7252 64.7719 25.0688 64.7737 24.4122C64.7761 23.5367 64.7785 22.6609 64.7619 21.7852C64.7527 21.3316 64.9065 21.2419 65.3496 21.2306C65.8426 21.2167 65.8649 21.4403 65.8518 21.7953C65.8423 22.1532 65.8452 22.5115 65.8484 22.8913C65.8501 23.0894 65.8518 23.2933 65.8518 23.5059C66.3461 23.156 66.843 22.9298 67.4214 22.9741ZM65.8516 25.0194C65.8424 25.7724 66.2644 26.2424 66.9454 26.2361C67.6171 26.2285 68.0668 25.7383 68.0655 25.0144C68.0641 24.2905 67.6198 23.7965 66.948 23.7952C66.2762 23.794 65.8608 24.2665 65.8516 25.0194Z" fill="white"/>
<path fill-rule="evenodd" clip-rule="evenodd" d="M59.5782 24.9766C59.5782 23.6451 60.4368 22.7927 61.8099 22.7689C63.1476 22.7451 64.0665 23.5882 64.0626 24.8641C64.0704 26.1705 63.1686 27.0573 61.8243 27.0758C60.4801 27.0943 59.5782 26.2525 59.5782 24.9766ZM60.6757 24.8972C60.6586 25.6517 61.1601 26.2817 61.7915 26.2817C62.461 26.2817 62.906 25.7536 62.906 24.925C62.906 24.0965 62.4649 23.5644 61.7915 23.5829C61.1548 23.5988 60.6927 24.1428 60.6757 24.8972Z" fill="white"/>
<path fill-rule="evenodd" clip-rule="evenodd" d="M73.6329 25.7894C73.6365 25.9805 73.6401 26.1718 73.6294 26.3625C73.6262 26.4199 73.6382 26.4864 73.6503 26.5534C73.6799 26.7179 73.71 26.8851 73.5176 26.9265C73.4849 26.9336 73.4505 26.9419 73.4151 26.9505C73.158 27.0126 72.8437 27.0885 72.6615 26.8034C72.531 26.6008 72.4663 26.6379 72.321 26.7504C72.2136 26.8296 72.0953 26.8934 71.9697 26.9398C71.1095 27.2787 70.1565 26.961 69.9088 26.2592C69.6261 25.4568 70.104 24.6994 71.0866 24.4346C71.2631 24.3861 71.4466 24.3635 71.6305 24.3409C71.758 24.3251 71.8857 24.3094 72.0114 24.285C72.0542 24.2769 72.1041 24.2801 72.1546 24.2834C72.2867 24.2918 72.4228 24.3005 72.4462 24.1089C72.4731 23.8878 72.3062 23.7435 72.1191 23.6508C71.7045 23.4455 71.2778 23.5501 70.8739 23.664C70.827 23.6772 70.7808 23.694 70.7359 23.7103C70.5199 23.7889 70.3325 23.857 70.2144 23.4667C70.0996 23.0875 70.3141 23.0339 70.5279 22.9806C70.5798 22.9676 70.6317 22.9547 70.6788 22.9371C71.0383 22.8101 71.4198 22.7539 71.8014 22.7716C73.0182 22.7941 73.6065 23.378 73.6294 24.5763V25.5032C73.6294 25.5984 73.6311 25.6939 73.6329 25.7894ZM72.2338 26.0349C72.4252 25.8643 72.5398 25.6259 72.5523 25.3721H72.551C72.5725 25.1099 72.5106 24.9683 72.1835 24.9828C71.4795 25.0146 70.9397 25.3284 70.972 25.7521C70.9742 25.8956 71.0345 26.0324 71.1397 26.1318C71.2449 26.2313 71.3861 26.2853 71.532 26.2817C71.79 26.2943 72.0424 26.2056 72.2338 26.0349Z" fill="white"/>
<path fill-rule="evenodd" clip-rule="evenodd" d="M65.5403 30.1452C66.5463 29.3467 68.5584 29.335 69.5827 30.1116C70.3561 30.7017 70.3366 31.5352 69.5252 32.0774C68.9255 32.4735 68.2565 32.6145 67.4883 32.6145C66.8429 32.5912 66.17 32.4566 65.5873 32.036C64.8517 31.5041 64.836 30.7043 65.5403 30.1452ZM66.059 31.0516C66.0407 31.6198 66.694 32.1116 67.5145 32.1452C68.3455 32.1789 69.1398 31.6379 69.1229 31.062C69.1059 30.4861 68.3807 29.9943 67.555 30.002C66.7502 30.0163 66.0773 30.4835 66.059 31.0516Z" fill="white"/>
<path fill-rule="evenodd" clip-rule="evenodd" d="M51.9365 30.6622C51.8984 31.0104 52.0363 31.0227 52.3012 31.035C52.7467 31.0556 52.8774 31.4805 52.8477 31.9068C52.818 32.333 52.6172 32.5647 52.1978 32.6072C51.527 32.6749 51.5544 32.2667 51.5808 31.8734C51.5886 31.7575 51.5963 31.6429 51.586 31.5422V30.6896C51.5872 30.5663 51.6407 30.4607 51.7476 30.4607C51.8545 30.4607 51.9507 30.5251 51.9365 30.6622ZM51.9354 31.8355C51.9401 32.0329 52.0007 32.1905 52.1932 32.2029H52.1991C52.4367 32.2193 52.4735 32.0151 52.4795 31.804C52.4916 31.7055 52.4688 31.6055 52.4163 31.5266C52.3638 31.4477 52.2859 31.3965 52.2003 31.3846C51.9734 31.4367 51.9306 31.6381 51.9354 31.8355Z" fill="white"/>
<path d="M51.8591 14.0428C51.8969 14.706 52.0563 15.2441 52.3372 15.6573C52.872 16.4318 53.8173 16.8187 55.1732 16.8178C55.7363 16.8248 56.2962 16.7385 56.8276 16.5628C57.7892 16.2346 58.2704 15.6467 58.2713 14.7991C58.2713 14.1631 58.0674 13.71 57.6595 13.4396C57.2517 13.1693 56.6043 12.9384 55.7175 12.7472L54.0969 12.3901C53.0372 12.1571 52.2868 11.9021 51.8456 11.6249C51.0839 11.1378 50.7031 10.4092 50.7031 9.43909C50.7031 8.38912 51.0776 7.52788 51.8267 6.85539C52.5758 6.1829 53.635 5.84623 55.0044 5.84538C56.2649 5.84538 57.3368 6.14294 58.22 6.73807C59.1032 7.33319 59.5444 8.27775 59.5435 9.57172H57.962C57.881 8.94089 57.7091 8.45543 57.4462 8.11536C56.9564 7.50578 56.1249 7.20099 54.9518 7.20099C54.0055 7.20099 53.3249 7.39738 52.9098 7.79017C52.5119 8.14545 52.2871 8.64016 52.2886 9.15726C52.2886 9.73028 52.533 10.149 53.0219 10.4134C53.3433 10.5834 54.0694 10.796 55.2003 11.051L56.8803 11.4311C57.6906 11.6122 58.3159 11.8587 58.7562 12.1707C59.5178 12.7165 59.8987 13.5089 59.8987 14.5478C59.8987 15.841 59.4129 16.766 58.4415 17.3228C57.47 17.8797 56.3428 18.1564 55.0598 18.153C53.5607 18.153 52.3867 17.7819 51.5377 17.0397C50.6887 16.2975 50.2727 15.2985 50.2898 14.0428H51.8591Z" fill="white"/>
<path fill-rule="evenodd" clip-rule="evenodd" d="M68.787 10.7379C68.4521 10.2669 67.9916 9.89031 67.4533 9.64711C66.8922 9.37197 66.2706 9.22896 65.6402 9.22999C64.4068 9.22662 63.4084 9.64796 62.6452 10.494C61.8819 11.34 61.5002 12.4406 61.5002 13.7956C61.5002 15.1708 61.8792 16.241 62.6372 17.0061C63.3473 17.7509 64.3571 18.1684 65.4104 18.1526C65.8148 18.1574 66.2184 18.1149 66.6121 18.0262C67.2373 17.897 67.812 17.6022 68.2707 17.1755C68.5623 16.9027 68.8069 16.5874 68.9957 16.2414C69.1902 15.9225 69.3202 15.5713 69.3786 15.2062H67.926C67.8253 15.5709 67.6392 15.9089 67.382 16.1947C66.9251 16.6859 66.3128 16.9316 65.5451 16.9316C64.7211 16.9307 64.1136 16.6712 63.7227 16.1529C63.3318 15.6347 63.1223 14.9458 63.0941 14.0863H69.5081C69.5081 13.236 69.464 12.6163 69.376 12.2269C69.2926 11.6962 69.0918 11.1885 68.787 10.7379ZM67.5733 11.4862C67.815 11.9449 67.954 12.4469 67.9814 12.96H63.1323C63.1344 12.2971 63.3931 11.6585 63.8586 11.1677C64.2909 10.7078 64.9107 10.4504 65.5569 10.4623C66.4988 10.4623 67.171 10.8036 67.5733 11.4862Z" fill="white"/>
<path d="M77.3328 9.91939C77.9672 10.3817 78.3485 11.1771 78.4767 12.3056H77.0048C76.9349 11.8278 76.7224 11.3784 76.3918 11.0095C76.0728 10.6659 75.5616 10.4942 74.8581 10.4942C73.8965 10.4942 73.2096 10.9346 72.7974 11.8155C72.5286 12.3881 72.3942 13.0934 72.3942 13.9314C72.3942 14.7693 72.5841 15.4796 72.9641 16.0624C73.345 16.6401 73.9427 16.9286 74.7573 16.9277C75.3846 16.9277 75.8806 16.7488 76.2453 16.3908C76.61 16.0329 76.8627 15.5428 77.0034 14.9205H78.47C78.3024 16.0388 77.8834 16.8561 77.2131 17.3724C76.5428 17.8886 75.6866 18.1488 74.6444 18.153C73.4704 18.153 72.5349 17.7501 71.8377 16.9441C71.1405 16.1382 70.791 15.1318 70.7892 13.925C70.7892 12.4446 71.1718 11.2921 71.9371 10.4676C72.6627 9.66062 73.7382 9.2059 74.8621 9.23093C75.8712 9.22757 76.6947 9.45705 77.3328 9.91939Z" fill="white"/>
<path d="M81.285 9.22995V14.9992C81.2708 15.3723 81.3427 15.7438 81.4953 16.0861C81.7536 16.6068 82.236 16.8672 82.9425 16.8672C83.9561 16.8672 84.6458 16.4124 85.0114 15.503C85.2111 15.0161 85.311 14.3483 85.311 13.4996V9.22995H86.8048V17.9164H85.3935L85.4095 16.6342C85.2293 16.9538 84.989 17.2374 84.7012 17.4699C84.1285 17.929 83.4059 18.1711 82.6656 18.152C81.423 18.152 80.5758 17.738 80.124 16.9101C79.8799 16.4658 79.7579 15.8735 79.7579 15.1333V9.22995H81.285Z" fill="white"/>
<path d="M89.3675 9.41937H90.8397V10.8753C90.9594 10.5924 91.255 10.2473 91.7264 9.83985C92.1587 9.44729 92.744 9.2279 93.3533 9.22997C93.3823 9.22997 93.4306 9.22997 93.4997 9.23754L93.8518 9.26911V10.7654C93.7684 10.7501 93.684 10.7396 93.5991 10.7338C93.5218 10.7338 93.4361 10.7263 93.345 10.7263C92.5633 10.7263 91.9648 10.9557 91.5496 11.4144C91.137 11.8561 90.9138 12.4196 90.9212 13.0004V17.8453H89.3675V9.41937Z" fill="white"/>
<path fill-rule="evenodd" clip-rule="evenodd" d="M101.78 10.7379C101.445 10.2672 100.984 9.89067 100.446 9.64711C99.885 9.37236 99.264 9.22937 98.6342 9.22999C97.4002 9.22662 96.4013 9.64796 95.6377 10.494C94.874 11.34 94.4922 12.4406 94.4922 13.7956C94.4922 15.1708 94.8714 16.241 95.6297 17.0061C96.3402 17.7509 97.3505 18.1684 98.4043 18.1526C98.8085 18.1574 99.2118 18.1149 99.6052 18.0262C100.231 17.8972 100.806 17.6024 101.265 17.1755C101.556 16.9024 101.802 16.5872 101.991 16.2414C102.186 15.9224 102.315 15.5712 102.373 15.2062H100.92C100.818 15.5707 100.632 15.9086 100.376 16.1947C99.9184 16.6859 99.3053 16.9316 98.5364 16.9316C97.7137 16.9307 97.106 16.6712 96.7131 16.1529C96.3203 15.6347 96.1107 14.9458 96.0842 14.0863H102.5C102.5 13.236 102.456 12.6163 102.368 12.2269C102.284 11.6964 102.084 11.1889 101.78 10.7379ZM100.556 11.4862C100.801 11.9445 100.943 12.4464 100.974 12.96H96.1145C96.1159 12.297 96.3749 11.6582 96.8412 11.1677C97.2737 10.7078 97.8937 10.4504 98.5402 10.4623C99.4818 10.4623 100.154 10.8036 100.556 11.4862Z" fill="white"/>
<path fill-rule="evenodd" clip-rule="evenodd" d="M39.901 3.07718L40.1015 3.15171L40.1994 3.19034V9.06367C40.1994 9.44227 40.1197 9.8187 39.9587 10.1959C39.7906 10.5897 39.584 10.9363 39.3393 11.237C39.086 11.5482 38.782 11.8532 38.427 12.1516C38.0634 12.4571 37.73 12.7092 37.4276 12.9076C37.1202 13.1095 36.7992 13.3003 36.4647 13.4803L36.1535 13.6457C36.0431 13.7035 35.949 13.7516 35.8726 13.7892L35.7545 13.8455L35.5055 13.9561L35.4017 13.9994L35.393 14.0004L35.3553 13.9862L35.2444 13.9391C35.215 13.9263 35.1827 13.912 35.1477 13.8964L35.0349 13.8455L34.6252 13.6402L34.3247 13.4803L34.1256 13.371C33.8623 13.2236 33.6077 13.0691 33.3618 12.9076C33.0594 12.7092 32.7259 12.4571 32.3624 12.1516C32.0074 11.8532 31.7034 11.5482 31.4501 11.237C31.2054 10.9363 30.9988 10.5897 30.8307 10.1959C30.6697 9.8187 30.59 9.44227 30.59 9.06367V3.19127L30.6808 3.15605C30.7475 3.13083 30.8269 3.10192 30.9161 3.07047L31.2111 2.96914C31.5272 2.86313 31.8851 2.75051 32.2504 2.64319L32.574 2.55007C33.7856 2.2088 34.8249 2.00038 35.4499 2.00038C36.0327 2.00038 36.9895 2.19161 38.1109 2.50766L38.3946 2.58924C38.6934 2.67684 38.9913 2.76951 39.2687 2.86037L39.5905 2.96811L39.7418 3.02051C39.7978 3.04014 39.851 3.05911 39.901 3.07718ZM32.8446 5.61841C33.084 5.61841 33.2828 5.71 33.4411 5.89318L33.8427 5.39041C33.7251 5.2579 33.58 5.15754 33.4076 5.08934C33.2351 5.02113 33.0394 4.98703 32.8203 4.98703C32.6702 4.98703 32.5221 5.01139 32.376 5.06011C32.23 5.10883 32.0991 5.18385 31.9835 5.28518C31.8678 5.38652 31.7745 5.51416 31.7035 5.66811C31.6325 5.82206 31.597 6.00621 31.597 6.22057C31.597 6.39206 31.6203 6.53918 31.667 6.66195C31.7137 6.78472 31.7766 6.8919 31.8557 6.98349C31.9348 7.07508 32.0261 7.154 32.1295 7.22026C32.233 7.28652 32.3436 7.34693 32.4612 7.40149L32.5518 7.44696C32.6983 7.52383 32.8223 7.60611 32.9238 7.6938C33.0455 7.79903 33.1063 7.94129 33.1063 8.12057C33.1063 8.30375 33.0556 8.446 32.9542 8.54734C32.8527 8.64867 32.7249 8.69934 32.5708 8.69934C32.4328 8.69934 32.2979 8.66816 32.1661 8.6058C32.0342 8.54344 31.9216 8.4577 31.8283 8.34857L31.4327 8.86303C31.5544 8.99944 31.7167 9.11246 31.9196 9.20211C32.1224 9.29175 32.3436 9.33657 32.5829 9.33657C32.7493 9.33657 32.9075 9.30929 33.0576 9.25472C33.2078 9.20016 33.3386 9.11929 33.4502 9.01211C33.5618 8.90493 33.651 8.77339 33.718 8.61749C33.7849 8.46159 33.8184 8.28231 33.8184 8.07964C33.8184 7.90426 33.79 7.75226 33.7332 7.62365C33.6764 7.49503 33.6033 7.38395 33.5141 7.29041C33.4248 7.19688 33.3254 7.11698 33.2159 7.05072C33.1063 6.98447 32.9988 6.926 32.8933 6.87534L32.8069 6.83206C32.6677 6.75925 32.5525 6.68306 32.4612 6.60349C32.3517 6.508 32.2969 6.37257 32.2969 6.19718C32.2969 6.09585 32.3121 6.00816 32.3425 5.93411C32.373 5.86005 32.4146 5.79965 32.4673 5.75288C32.5201 5.70611 32.5789 5.672 32.6438 5.65057C32.7087 5.62913 32.7757 5.61841 32.8446 5.61841ZM35.6786 5.61843C35.918 5.61843 36.1168 5.71002 36.2751 5.8932L36.6767 5.39043C36.5591 5.25792 36.414 5.15756 36.2416 5.08936C36.0692 5.02115 35.8734 4.98705 35.6543 4.98705C35.5042 4.98705 35.3561 5.01141 35.21 5.06013C35.064 5.10884 34.9331 5.18387 34.8175 5.2852C34.7019 5.38654 34.6085 5.51418 34.5375 5.66813C34.4665 5.82207 34.431 6.00623 34.431 6.22059C34.431 6.39208 34.4544 6.5392 34.501 6.66197C34.5477 6.78474 34.6106 6.89192 34.6897 6.98351C34.7688 7.0751 34.8601 7.15402 34.9636 7.22028C35.067 7.28654 35.1776 7.34695 35.2952 7.40151L35.3858 7.44698C35.5324 7.52385 35.6563 7.60613 35.7578 7.69382C35.8795 7.79905 35.9403 7.9413 35.9403 8.12059C35.9403 8.30377 35.8896 8.44602 35.7882 8.54736C35.6868 8.64869 35.559 8.69936 35.4048 8.69936C35.2668 8.69936 35.1319 8.66818 35.0001 8.60582C34.8682 8.54346 34.7556 8.45772 34.6623 8.34859L34.2667 8.86305C34.3884 8.99946 34.5507 9.11248 34.7536 9.20213C34.9565 9.29177 35.1776 9.33659 35.417 9.33659C35.5833 9.33659 35.7415 9.30931 35.8917 9.25474C36.0418 9.20018 36.1726 9.11931 36.2842 9.01213C36.3958 8.90495 36.485 8.77341 36.552 8.61751C36.6189 8.46161 36.6524 8.28233 36.6524 8.07966C36.6524 7.90428 36.624 7.75228 36.5672 7.62366C36.5104 7.49505 36.4374 7.38397 36.3481 7.29043C36.2588 7.19689 36.1594 7.117 36.0499 7.05074C35.9403 6.98448 35.8328 6.92602 35.7273 6.87536L35.6409 6.83208C35.5018 6.75927 35.3865 6.68308 35.2952 6.60351C35.1857 6.50802 35.1309 6.37259 35.1309 6.1972C35.1309 6.09587 35.1461 6.00818 35.1766 5.93413C35.207 5.86007 35.2486 5.79966 35.3013 5.7529C35.3541 5.70613 35.4129 5.67202 35.4778 5.65059C35.5427 5.62915 35.6097 5.61843 35.6786 5.61843ZM37.417 9.23118V5.0921H38.1534V8.58226H39.3401V9.23118H37.417Z" fill="white"/>
</svg>
